<?xml version="1.0" encoding="utf-8"?>
<!-- Generator: Adobe Illustrator 22.1.0, SVG Export Plug-In . SVG Version: 6.00 Build 0)  -->
<svg version="1.1" id="Layer_1" xmlns="http://www.w3.org/2000/svg" xmlns:xlink="http://www.w3.org/1999/xlink" x="0px" y="0px"
	 viewBox="0 0 577.7 473.5" style="enable-background:new 0 0 577.7 473.5;" xml:space="preserve">
<style type="text/css">
	.st0{opacity:0.2;fill:#E6E7E8;enable-background:new    ;}
	.st1{opacity:0.43;fill:#E5E5E5;enable-background:new    ;}
	.st2{opacity:0.21;fill:#DEDDDD;enable-background:new    ;}
	.st3{fill:url(#SVGID_1_);}
	.st4{fill:#E4445F;}
	.st5{fill:#FCFAF7;}
	.st6{fill:#C63856;}
	.st7{opacity:0.88;fill:#DEDDDD;enable-background:new    ;}
	.st8{fill:none;stroke:#999999;stroke-width:1.86;stroke-linecap:round;stroke-miterlimit:10;}
	.st9{fill:#FCFAF7;stroke:#7D7D7D;stroke-width:1.45;stroke-linecap:round;stroke-miterlimit:10;}
	.st10{opacity:0.76;fill:#E5E5E5;enable-background:new    ;}
	.st11{fill:none;stroke:#CCCCCC;stroke-width:0.93;stroke-linecap:round;stroke-miterlimit:10;}
	.st12{fill:#FFFFFF;}
	.st13{opacity:0.76;fill:#DEDDDD;enable-background:new    ;}
	
		.st14{opacity:0.54;fill:none;stroke:#999999;stroke-width:1.36;stroke-linecap:round;stroke-miterlimit:10;enable-background:new    ;}
	.st15{fill:none;stroke:#FFFFFF;stroke-width:4;stroke-linecap:round;stroke-miterlimit:10;}
	.st16{fill:none;stroke:#CCCCCC;stroke-width:4;stroke-linecap:round;stroke-miterlimit:10;}
</style>
<title>404</title>
<g id="Layer_2_1_">
	<g id="Layer_1-2">
		<circle class="st0" cx="289.7" cy="236.8" r="236.8"/>
		<circle class="st1" cx="289.7" cy="236.8" r="181"/>
		<circle class="st2" cx="289.6" cy="243.8" r="152"/>
		
			<linearGradient id="SVGID_1_" gradientUnits="userSpaceOnUse" x1="258.9352" y1="290.6747" x2="513.6111" y2="297.178" gradientTransform="matrix(1 0 0 -1 0 474)">
			<stop  offset="3.000000e-02" style="stop-color:#FFFFFF;stop-opacity:0.97"/>
			<stop  offset="1" style="stop-color:#FFFFFF;stop-opacity:0"/>
		</linearGradient>
		<polygon class="st3" points="292.5,167.4 501.7,106.9 542.8,246.3 292.5,176.7 		"/>
		<path class="st4" d="M296.8,238.3c0,0-1.1-54.1-0.2-56.6c0.5-1,1.3-1.9,2.4-2.4c0.4-0.2,0.5-0.7,0.3-1.1c-0.1-0.3-0.4-0.4-0.7-0.4
			h-31.2c-0.4,0-0.8,0.3-0.8,0.8c0,0.3,0.1,0.6,0.4,0.7c1.6,1,3.3,2.3,3.2,3.3c-0.1,1.9,0,55.7,0,55.7s-4.2,0.2-4.2,2.1
			c0,2.3,0.6,4-2,4.2c-1.2,0.1-2.5,0-3.8,0.1c-1.9,0.1-2.6,1.3-2.6,3.4c0,7.3,0.6,11-1.2,11.1c-2.1,0.1-2.4,0.5-2.2,4.5
			s0,10.9,0,10.9s-0.5,2.8,1.2,3c1.7,0.2,43.6,0.4,43.6,0.4s3.3,0.5,2.9-4.4s0.1-26.9-0.7-29C300.5,242.4,297.7,241.1,296.8,238.3z"
			/>
		<path class="st5" d="M266.9,179.3c1.6,1,3.3,2.3,3.2,3.3c-0.1,0.7-0.1,8.3-0.1,17.7c2.8,0.1,5.5,0.4,8.3,0.6
			c1.1-0.1,2.2-0.1,3.3-0.1c4,0,8.3,0.3,12.5,0.3l2.1-0.2c-0.1-10,0-18.3,0.3-19.3c0.5-1,1.3-1.9,2.4-2.4c0.4-0.2,0.5-0.7,0.3-1.1
			c-0.1-0.3-0.4-0.4-0.7-0.4h-31.3c-0.4,0-0.8,0.4-0.7,0.8C266.6,178.9,266.7,179.2,266.9,179.3z"/>
		<path class="st5" d="M261.6,261.2c0.4-0.6,1-1,1.7-1.2c3.8-0.8,7.7-1.1,11.6-0.9c0.7-0.4,1.5-0.6,2.3-0.5c8,1.5,16.2,0.2,24.3,0.5
			h0.4c0-6.8-0.1-13.6-0.5-14.7c-0.8-2.1-3.6-3.4-4.5-6.2v-0.4h-3.5c-2,0.1-4,0.2-5.9,0.4c-6.5,0.4-13,0.4-19.5,0.4
			c-1,0.3-1.9,0.8-1.9,1.7c0,2.3,0.6,4-2,4.2c-1.2,0.1-2.5,0-3.8,0.1c-1.9,0.1-2.6,1.3-2.6,3.4c0,7.3,0.6,11-1.2,11.1
			c-1.1,0.1-1.7,0.2-2,0.9C256.9,260.3,259.3,260.8,261.6,261.2z"/>
		<path class="st5" d="M301.8,269.7h-4.1c-7.4,0.2-14.9,0.5-22.3,0.6c-2,0-4.1,0-6.1,0c-5,0.3-10,0.6-15,0.7c0,2-0.1,3.6-0.1,3.6
			s-0.5,2.8,1.2,3s43.6,0.4,43.6,0.4s3.3,0.5,2.9-4.4C301.9,272.6,301.9,271.3,301.8,269.7z"/>
		<path class="st6" d="M269.6,238.3c3.7-0.1,7.4-0.2,11-0.1c-0.2-0.9-0.4-1.8-0.6-2.8c-1.2-9.8-0.4-20-0.3-29.8c0-1.4,0-2.8,0-4.2
			c-3.2,0.2-6.4,0.3-9.7,0.3c0,16.1,0.1,36.5,0.1,36.5L269.6,238.3z"/>
		<path class="st6" d="M301.8,266.4c-2.4,0-4.9,0.2-7.2-0.8c-2.7-1.1-3.9-3.4-4.7-6c-1.1,0-2.2,0-3.3,0c-9.9-0.2-19.8-0.8-29.6-0.6
			c-0.2,0.1-0.3,0.2-0.5,0.2c-2.1,0.1-2.4,0.5-2.2,4.5s0,10.9,0,10.9s-0.5,2.8,1.2,3c1.7,0.2,43.6,0.4,43.6,0.4s3.3,0.5,2.9-4.4
			C301.9,272.1,301.8,269.5,301.8,266.4z"/>
		<path class="st7" d="M266.9,179.3c1.6,1,3.3,2.3,3.2,3.3c-0.1,0.7-0.1,8.6-0.1,18.2l2.8,0.1c2.3,0.1,4.6,0.2,6.9,0.3
			c0-3.7-0.1-7.4,0-11.2c0.2-4.1,0.1-8.2-0.2-12.3h-12.3c-0.4,0-0.8,0.4-0.8,0.8C266.6,178.9,266.7,179.2,266.9,179.3z"/>
		<path class="st7" d="M257.5,258.3c2.3,0,4.8,0.9,7.1,0.9c8.4-0.1,17.8,0.3,25-1c-1.7-7-6.7-12.5-8.7-19.4
			c-4.8,0.3-9.7,0.6-14.5,0.8c-0.2,0.2-0.3,0.5-0.3,0.8c0,2.3,0.6,4-2,4.2c-1.2,0.1-2.5,0-3.8,0.1c-1.9,0.1-2.6,1.3-2.6,3.4
			C257.7,253.4,258,256.8,257.5,258.3z"/>
		<path class="st8" d="M296.8,238.3c0,0-1.1-54.1-0.2-56.6c0.5-1,1.3-1.9,2.4-2.4c0.4-0.2,0.5-0.7,0.3-1.1c-0.1-0.3-0.4-0.4-0.7-0.4
			h-31.2c-0.4,0-0.8,0.3-0.8,0.8c0,0.3,0.1,0.6,0.4,0.7c1.6,1,3.3,2.3,3.2,3.3c-0.1,1.9,0,55.7,0,55.7s-4.2,0.2-4.2,2.1
			c0,2.3,0.6,4-2,4.2c-1.2,0.1-2.5,0-3.8,0.1c-1.9,0.1-2.6,1.3-2.6,3.4c0,7.3,0.6,11-1.2,11.1c-2.1,0.1-2.4,0.5-2.2,4.5
			s0,10.9,0,10.9s-0.2,3.1,1.6,3.3s43.3,0,43.3,0s3.1,0.5,2.9-4.4c-0.2-5.1,0.1-26.9-0.7-29C300.5,242.4,297.7,241.1,296.8,238.3z"
			/>
		<path class="st4" d="M292.4,160.7h-16.7c-0.7-2-0.4-4.1,0.6-5.9c2.2-3.6,6.6-5.3,10.6-3.8C290.7,152.1,293,154.8,292.4,160.7z"/>
		<path class="st6" d="M287.2,160.1c0,0-5.1-2-5.3-7.1c-0.1-3.1-1.4-1.9-2-1.6c-0.5,0.3-4.8,3.9-4.6,6.2c0.2,2.3,2.1,3,3.9,3h6.5
			L287.2,160.1z"/>
		<path class="st4" d="M294.4,171c-0.9-0.9-21.3-0.7-21.3-0.2s0,6.6,0,6.6h21.2C294.3,177.4,294.8,171.4,294.4,171z"/>
		<path class="st6" d="M278.7,177.8c0,0-2.9-2.2-3-4.4s0-3.5,0-3.5h-2.6c0,0-0.7,5.6-0.6,5.9s0.6,2.1,0.6,2.1L278.7,177.8z"/>
		<path class="st8" d="M294.4,171c-0.9-0.9-21.3-0.7-21.3-0.2s0,6.6,0,6.6h21.2C294.3,177.4,294.8,171.4,294.4,171z"/>
		<line class="st8" x1="296.8" y1="238.3" x2="268.9" y2="238.3"/>
		<line class="st8" x1="298.2" y1="201.2" x2="269.1" y2="201.2"/>
		<line class="st8" x1="256.5" y1="259.2" x2="302" y2="259.2"/>
		<path class="st8" d="M292.4,160.7h-16.7c-0.7-2-0.4-4.1,0.6-5.9c2.2-3.6,6.6-5.3,10.6-3.8C290.7,152.1,293,154.8,292.4,160.7z"/>
		<path class="st8" d="M284,143.9c0,0.7,0,6.5,0,6.5"/>
		<line class="st8" x1="275.7" y1="160.7" x2="275.7" y2="169.9"/>
		<line class="st8" x1="286.6" y1="160.7" x2="286.6" y2="169.9"/>
		<line class="st8" x1="292.5" y1="169.9" x2="292.5" y2="160.7"/>
		<path class="st9" d="M347,277.9c2.9,0,5.3,2.4,5.3,5.3c0,0.6-0.1,1.2-0.3,1.7c-1.2,3.3-2.6,7.1-3.8,9.9s-3,6.5-4.9,10
			c-3.1,5.6-11-0.6-12.6,6c-3.6,14.5-10.3,40.6-11.4,46.2c-2.1,10.8-4.1,23.3-10.8,23.2c-5.3,0-6.6-5.1-7.9-11.8
			c-1-5.3-1.3-12.9-7.9-12.5c-6.9,0.4-6.7,6.2-8.4,15.2c-2.1,11-4.4,19.1-10.6,19.1c-9.8,0-10.3-15.5-13-31.6l-3.6-28.7
			c-1-9.1-1.4-16.2-7.4-15.7c-6.3,0.5-5.5,3.8-6.5,9.8c-0.9,5.7-1.5,11-7.1,11.4c-6.4,0.5-8.2-10.8-8.8-14.5
			c-2-13.2-3.1-24.4-8.1-26.7c-5.6-2.6-11.7-4.2-16.4-6.4c-2.6-1.3-3.7-4.5-2.4-7.1c0.9-1.8,2.7-3,4.8-3H347z"/>
		<path class="st10" d="M344.1,301.1c-2.9,0.8-6,0.5-9.4,0.7c-0.8,0.2-1.5,0.4-2.3,0.5c-1.1,0.4-2.1,1.1-2.9,2
			c-2.3,4.8-5.1,17.1-6.2,22.8c-1.5,7.5-3.1,11.6-6.1,11.6c-4.6,0-5-3-6.5-9.4s-0.7-12.1-7-11.9s-5.6,3.9-8.3,13.4
			c-2.5,8.8-3,15-10.4,14.7c-6.6-0.3-8.4-7-10.1-21.5c-3.4-29.6-4-32.7-9.3-32.9c-3-0.1-4.5-0.4-6.4,1.7c-3.9,4.5-13.4,4.7-17.2-3.2
			c-2.3-4.7-3-7-5.1-11.7h-31.5c-2.9,0-5.3,2.3-5.4,5.2c0,2.1,1.2,3.9,3,4.8c4.7,2.2,10.8,3.8,16.4,6.4c4.9,2.3,6.1,13.5,8.1,26.7
			c0.6,3.7,2.4,14.9,8.8,14.5c5.6-0.4,6.2-5.7,7.1-11.4c1-6.1,0.2-9.3,6.5-9.8c6-0.5,6.4,6.6,7.4,15.7l3.6,28.7
			c2.7,16.1,3.2,31.6,13,31.6c6.2,0,8.5-8.1,10.6-19.1c1.7-8.9,1.5-14.8,8.4-15.2c6.6-0.4,6.8,7.2,7.9,12.5
			c1.3,6.6,2.5,11.7,7.9,11.8c6.7,0,8.7-12.4,10.8-23.2c1.1-5.6,7.8-31.8,11.4-46.2c1.6-6.6,9.5-0.4,12.6-6c0.6-1.1,1.2-2.2,1.7-3.3
			C344.7,301.5,344.4,301.3,344.1,301.1z"/>
		<path class="st8" d="M347,277.9c2.9,0,5.3,2.4,5.3,5.3c0,0.6-0.1,1.2-0.3,1.7c-1.2,3.3-2.6,7.1-3.8,9.9s-3,6.5-4.9,10
			c-3.1,5.6-11-0.6-12.6,6c-3.6,14.5-10.3,40.6-11.4,46.2c-2.1,10.8-4.1,23.3-10.8,23.2c-5.3,0-6.6-5.1-7.9-11.8
			c-1-5.3-1.3-12.9-7.9-12.5c-6.9,0.4-6.7,6.2-8.4,15.2c-2.1,11-4.4,19.1-10.6,19.1c-9.8,0-10.3-15.5-13-31.6l-3.6-28.7
			c-1-9.1-1.4-16.2-7.4-15.7c-6.3,0.5-5.5,3.8-6.5,9.8c-0.9,5.7-1.5,11-7.1,11.4c-6.4,0.5-8.2-10.8-8.8-14.5
			c-2-13.2-3.1-24.4-8.1-26.7c-5.6-2.6-11.7-4.2-16.4-6.4c-2.6-1.3-3.7-4.5-2.4-7.1c0.9-1.8,2.7-3,4.8-3H347z"/>
		<line class="st11" x1="230.7" y1="315.8" x2="236.9" y2="315.8"/>
		<line class="st11" x1="264.2" y1="330.4" x2="272.9" y2="330.4"/>
		<path class="st11" d="M259.4,307"/>
		<line class="st11" x1="268.5" y1="304.3" x2="254" y2="304.3"/>
		<line class="st11" x1="280" y1="321.2" x2="289.4" y2="321.2"/>
		<line class="st11" x1="269.3" y1="345.7" x2="277.7" y2="345.7"/>
		<line class="st11" x1="211.1" y1="285.1" x2="222.2" y2="285.1"/>
		<path class="st11" d="M266.8,357.5l6.1-0.1"/>
		<line class="st11" x1="235" y1="291.7" x2="244.5" y2="291.7"/>
		<line class="st11" x1="263.8" y1="285.1" x2="278.6" y2="285.1"/>
		<path class="st11" d="M284.2,308.5h10.8"/>
		<line class="st11" x1="291.4" y1="331.9" x2="306.2" y2="331.9"/>
		<line class="st11" x1="305.3" y1="366.6" x2="310.7" y2="366.6"/>
		<line class="st11" x1="306.4" y1="355.3" x2="315.1" y2="355.2"/>
		<line class="st11" x1="291.3" y1="348.5" x2="299.2" y2="348.5"/>
		<line class="st11" x1="272.2" y1="369.4" x2="280.1" y2="369.4"/>
		<line class="st11" x1="235" y1="304.3" x2="242.9" y2="304.3"/>
		<path class="st11" d="M235.5,325.3h4.2"/>
		<line class="st11" x1="269.6" y1="380.2" x2="277.5" y2="380.2"/>
		<path class="st12" d="M338.2,201.2c0,0,11.2,0.3,18.9,0s18.3,1,18.3-4.4s-5.7-4.8-5.7-4.8s-9.7,0.5-9.7-4.6
			c0-6.1,8.8-5.3,16.8-5.1s26.3,0.2,41.7,0c14.6-0.1,17.1,1.2,17.2,4.9s-2.8,4.2-7.2,4.5c-5.6,0.4-13.7-0.5-13.6,4.8
			c0,2.5,1.1,4.6,5.8,4.6c3.3,0,32.6-0.1,38.9-0.1c5.5,0.1,6.8,2.6,6.8,4.4c0,5.2-4.4,5.2-4.4,5.2s-34-0.1-42.4,0
			c-7.4,0.1-10-0.5-12.4,2.8c-2.9,5-2.3,6.5-4.4,10.6c-2.5,4.6-12.2,4.4-16.5,4.5c-0.3,0-24.3,0-27.4,0c-5.3-0.1-15.9,0.6-16.4-3.6
			c-0.3-2.5,0.6-4.7,3.9-5.1c4.9-0.6,6-1.3,6-4.4c-0.1-1.8-1.3-3.3-3.1-3.7c-4.1-0.9-8.6-0.5-10.5-0.4c-3.5,0.1-8.3,0-8-5.4
			S338.2,201.2,338.2,201.2z"/>
		<line class="st8" x1="410.4" y1="277" x2="408.4" y2="275.1"/>
		<polyline class="st8" points="448.8,277 446.9,275.7 444.8,277 		"/>
		<path class="st5" d="M457.2,283.5c-1.7-0.5-7.4,0.4-8.2,0.3s-2.1,3.5-2.1,3.5s-0.8,1-1.1-0.4c-0.1-0.4-0.6-3-2.7-3.3
			c-1.7-0.2-3.3-0.3-5-0.2c0,0-3-0.1-3.4,0.9s1.2,3.9,3.3,5.7c2.1,1.6,4.3,3,6.6,4.3l0,0c-0.7,3-3,6.2-6.6,9.8c-2,2.2-5,3.4-8,3.3
			c0,0-20.4-2.2-21.8-0.1c-2.8,4.2,1.5,10.6,7.6,16s13.2,3.4,15,3.4s1.8,3.3,5,5.3s7.5,0.1,8-1s-4.7-6.5-4.7-6.5s-2.7,0.2-2.3-0.1
			c0,0,4.7-0.6,8.4-6.5s2.6-16.7,2.8-20.5c0-1,0.1-2,0.1-2.9l0,0c0,0,5.3-2.1,6.8-4.5S458.9,283.9,457.2,283.5z"/>
		<path class="st13" d="M453,291.4c-1.5,0.2-3.5-0.2-4.9,0.4s-1.7,2-2,3.5c-0.4,2.2-0.6,4.4-1,6.6c-0.1,0.5-0.2,1-0.3,1.5l-0.1,0.3
			v0.1c-0.4,1.9-1.1,3.7-2,5.4c-2.1,4.4-5.4,8.1-10.3,8.9c-4.3,0.7-6.5-0.8-9.8-3.2c-0.8-0.4-3.2-0.8-3.9-1.3
			c-1.1-0.4-2.2-0.8-3.3-1.1c-2.7-0.7-5.5-0.8-8.2-1.2c0.6,3.7,4.1,8.1,8.4,11.9c6.1,5.4,13.2,3.4,15,3.4s1.8,3.3,5,5.3s7.5,0.1,8-1
			s-4.7-6.5-4.7-6.5s-2.7,0.2-2.3-0.1c0,0,4.7-0.6,8.4-6.5s2.6-16.7,2.8-20.5c0-1,0.1-2,0.1-2.9l0,0c2-0.8,3.9-1.9,5.6-3.2
			L453,291.4z"/>
		<path class="st13" d="M441.7,288.6c-1.7-1.8-3.5-3.4-5-5.3c-0.9,0.1-2,0.3-2.2,0.9c-0.4,1,1.2,3.9,3.3,5.7
			c1.9,1.5,3.8,2.8,5.9,3.9c0.2,0,0.3,0.1,0.5,0.1C444.1,291.9,443.2,290,441.7,288.6z"/>
		<path class="st8" d="M457.2,283.5c-1.7-0.5-7.4,0.4-8.2,0.3s-2.1,3.5-2.1,3.5s-0.8,1-1.1-0.4c-0.1-0.4-0.6-3-2.7-3.3
			c-1.7-0.2-3.3-0.3-5-0.2c0,0-3-0.1-3.4,0.9s1.2,3.9,3.3,5.7c2.1,1.6,4.3,3,6.6,4.3l0,0c-0.7,3-3,6.2-6.6,9.8c-2,2.2-5,3.4-8,3.3
			c0,0-20.4-2.2-21.8-0.1c-2.8,4.2,1.5,10.6,7.6,16s13.2,3.4,15,3.4s1.8,3.3,5,5.3s7.5,0.1,8-1s-4.7-6.5-4.7-6.5s-2.7,0.2-2.3-0.1
			c0,0,4.7-0.6,8.4-6.5s2.6-16.7,2.8-20.5c0-1,0.1-2,0.1-2.9l0,0c0,0,5.3-2.1,6.8-4.5S458.9,283.9,457.2,283.5z"/>
		<path class="st8" d="M430.3,326.6c0,0-0.3-6.8-4.3-9.9s-18.6-5.8-18.6-5.8"/>
		<path class="st5" d="M408.4,274.2c0,0-7.7-0.6-7.5-7.5s1.3-11.1,7.5-11.5s7.2,6.5,6.6,11.5S412.9,273.4,408.4,274.2z"/>
		<path class="st13" d="M414,266.8c-5.5,3.4-10-4.9-10.8-10.1c-2.1,1.9-2.6,5.2-2.8,9.8c-0.2,6.8,8,8.6,8,8.6c4.4-0.8,6.8-4,7.3-9
			c0,0-1.2,0.3-1.2,0.2C414.4,266.5,414.2,266.7,414,266.8z"/>
		<path class="st8" d="M408.4,275.1c-2.8,0-8.1-1.5-8.6-9c-0.4-6.8,2.3-11.5,8.6-11.5c5.8,0,7.9,6,7.4,11S412.9,275.1,408.4,275.1z"
			/>
		<path class="st8" d="M408.1,306.6c-0.1-0.3,0.4-30.9,0.4-30.9l-2.1,1.3"/>
		<path class="st5" d="M446.8,275.1c0,0-7.5,0-7.6-8.2s3.3-12.2,7.6-12.2s6.8,3.5,7.4,8.9C454.9,268.6,452.6,274.7,446.8,275.1z"/>
		<path class="st13" d="M446.3,264.9c-2.4-2.4-3.5-5.9-3-9.2c-2.5,1.6-4.2,5.3-4.2,11.2c0.1,8.2,7.6,8.2,7.6,8.2
			c4.6-0.3,7-4.3,7.5-8.5C451.6,268,448.4,266.8,446.3,264.9z"/>
		<path class="st8" d="M446.8,275.1c-1.9,0-7.9-2.1-8-10.3s3.6-10.1,8-10.1s6.9,3,7.5,8.3C455,268,452.6,275.1,446.8,275.1z"/>
		<line class="st8" x1="446.7" y1="286.3" x2="446.8" y2="275.1"/>
		<circle class="st8" cx="423.1" cy="310.9" r="0.7"/>
		<path class="st12" d="M106.5,206h37.3c0,0,16.7-1.7,17.3,7c0.8,11.1-45.1,7.8-57.7,8.3s-43.1-0.6-43.1-0.6s-12-1.7-12,7.7
			c0,8.8,13.6,7.1,25.2,7.4c16.8,0.5,53.6-3.5,57.9,10.2c4.3,13.7,9.4,16.8,19.6,17.1s86.8,0,86.8,0s9.2,1,9.2-6.4
			s-6.6-8.3-20.4-7.8s-39.5,2.9-39.9-5.7s9.5-7.1,23.2-7.4s63.7-0.4,63.7-0.4s7.6,1.5,7.6-7.1c0-4.7-2.7-6.7-12.5-7.3
			c-7.8-0.5-22.5-0.4-33.8-0.9c-7.6-0.3-9.2-2.6-9.5-6.6s3.1-7.7,10.2-7.6s11.8-3,11.3-8.9s-1.4-9.3-26.5-8.6l-103-0.1
			c-13-0.2-33-2.3-33,7.7C84.6,204.3,89.4,206,106.5,206z"/>
		<circle class="st5" cx="216.6" cy="106" r="18.1"/>
		<path class="st7" d="M213.4,114c-6.4-5.4-8.8-13.5-8.6-21.6c-7.5,6.6-8.3,18-1.7,25.5c6.2,7.1,16.8,8.2,24.3,2.6
			C222.3,119.5,217.5,117.3,213.4,114z"/>
		<circle class="st14" cx="216.6" cy="106" r="18"/>
		<line class="st11" x1="200.9" y1="103.1" x2="204.6" y2="103.1"/>
		<line class="st11" x1="205.2" y1="110.1" x2="209.5" y2="110.1"/>
		<path class="st11" d="M210.5,100.3"/>
		<line class="st11" x1="213.6" y1="100.3" x2="208.3" y2="100.3"/>
		<line class="st11" x1="216.1" y1="106.9" x2="219.6" y2="106.9"/>
		<line class="st11" x1="206.6" y1="116.4" x2="210" y2="116.4"/>
		<line class="st11" x1="204.6" y1="96.2" x2="207.7" y2="96.2"/>
		<line class="st11" x1="211.9" y1="93.4" x2="216.6" y2="93.4"/>
		<line class="st11" x1="225.5" y1="110.5" x2="230.2" y2="110.5"/>
		<line class="st11" x1="223.4" y1="116.8" x2="226.2" y2="116.8"/>
		<line class="st11" x1="217.1" y1="113" x2="219.6" y2="113"/>
		<line class="st11" x1="214.6" y1="120.2" x2="217.1" y2="120.2"/>
		<path class="st12" d="M344.5,90.2c0,0-6.5,0.2-11,0s-10.7,0.6-10.7-2.6s3.4-2.8,3.4-2.8s5.7,0.3,5.7-2.7c0-3.6-5.1-3.1-9.8-3
			s-15.4,0.1-24.4,0c-8.6-0.1-10,0.7-10,2.9s1.6,2.5,4.2,2.6c3.3,0.2,8-0.3,8,2.8c0,1.4-0.7,2.7-3.4,2.7c-1.9,0-19-0.1-22.7,0
			c-3.2,0-4,1.5-4,2.6c0,3.1,2.6,3,2.6,3s19.9-0.1,24.8,0c4.3,0.1,5.9-0.3,7.2,1.6c1.7,2.9,1.3,3.8,2.6,6.2c1.5,2.7,7.2,2.6,9.6,2.6
			c0.2,0,14.2,0,16,0c3.1,0,9.3,0.3,9.6-2.1c0.3-1.3-0.4-2.6-1.7-2.9c-0.2,0-0.4-0.1-0.6-0.1c-2.9-0.4-3.5-0.8-3.5-2.6
			c0-1,0.8-1.9,1.8-2.2c2-0.4,4.1-0.4,6.2-0.2c2,0.1,4.9,0,4.7-3.2S344.5,90.2,344.5,90.2z"/>
		<line class="st15" x1="290.1" y1="209.3" x2="290.1" y2="214.8"/>
		<line class="st15" x1="290.1" y1="224.3" x2="290.1" y2="229.8"/>
		<line class="st16" x1="290.1" y1="244.8" x2="290.1" y2="250.3"/>
		<line class="st15" x1="290.1" y1="265.7" x2="290.1" y2="271.2"/>
	</g>
</g>
</svg>
