<?xml version="1.0" encoding="iso-8859-1"?>
<!-- Generator: Adobe Illustrator 19.0.0, SVG Export Plug-In . SVG Version: 6.00 Build 0)  -->
<svg version="1.1" id="Layer_1" xmlns="http://www.w3.org/2000/svg" xmlns:xlink="http://www.w3.org/1999/xlink" x="0px" y="0px"
	 viewBox="0 0 512 512" style="enable-background:new 0 0 512 512;" xml:space="preserve">
<g transform="translate(1 1)">
	<path style="fill:#FFDD09;" d="M347.16,464.067H162.84c-1.707,0-2.56-2.56-0.853-3.413l15.36-11.093
		c16.213-11.947,24.747-33.28,19.627-53.76h116.053l0,0c-5.12,20.48,3.413,41.813,19.627,53.76l15.36,11.093
		C349.72,461.507,348.867,464.067,347.16,464.067"/>
	<path style="fill:#FD9808;" d="M348.013,460.653l-15.36-11.093c-16.213-11.947-24.747-33.28-19.627-53.76l0,0h-25.6l0,0
		c-5.12,20.48,3.413,41.813,19.627,53.76l15.36,11.093c1.707,0.853,0.853,3.413-0.853,3.413h25.6
		C348.867,464.067,349.72,461.507,348.013,460.653"/>
	<path style="fill:#FFDD09;" d="M353.133,489.667H156.867c-6.827,0-12.8-5.973-12.8-12.8s5.973-12.8,12.8-12.8h196.267
		c6.827,0,12.8,5.973,12.8,12.8S359.96,489.667,353.133,489.667"/>
	<path style="fill:#FD9808;" d="M353.133,464.067h-25.6c6.827,0,12.8,5.973,12.8,12.8s-5.973,12.8-12.8,12.8h25.6
		c6.827,0,12.8-5.973,12.8-12.8S359.96,464.067,353.133,464.067"/>
	<g>
		<path style="fill:#FFFFFF;" d="M161.987,460.653l15.36-11.093c16.213-11.947,24.747-33.28,19.627-53.76l0,0h25.6l0,0
			c5.12,20.48-3.413,41.813-19.627,53.76l-15.36,11.093c-1.707,0.853-0.853,3.413,0.853,3.413h-25.6
			C161.133,464.067,160.28,461.507,161.987,460.653"/>
		<path style="fill:#FFFFFF;" d="M156.867,464.067h25.6c-6.827,0-12.8,5.973-12.8,12.8s5.973,12.8,12.8,12.8h-25.6
			c-6.827,0-12.8-5.973-12.8-12.8S150.04,464.067,156.867,464.067"/>
	</g>
	<path style="fill:#FCC309;" d="M472.6,395.8H37.4c-16.213,0-29.867-13.653-29.867-29.867V50.2
		c0-16.213,13.653-29.867,29.867-29.867h435.2c16.213,0,29.867,13.653,29.867,29.867v315.733
		C502.467,382.147,488.813,395.8,472.6,395.8"/>
	<path style="fill:#FFDD09;" d="M502.467,319H7.533V50.2c0-16.213,13.653-29.867,29.867-29.867h435.2
		c16.213,0,29.867,13.653,29.867,29.867V319z"/>
	<path style="fill:#FD9808;" d="M485.4,365.933V50.2c0-16.213-13.653-29.867-29.867-29.867H472.6
		c16.213,0,29.867,13.653,29.867,29.867v315.733c0,16.213-13.653,29.867-29.867,29.867h-17.067
		C471.747,395.8,485.4,382.147,485.4,365.933"/>
	<path style="fill:#FFFFFF;" d="M37.4,20.333h17.067C38.253,20.333,24.6,33.987,24.6,50.2v315.733
		c0,16.213,13.653,29.867,29.867,29.867H37.4c-16.213,0-29.867-13.653-29.867-29.867V50.2C7.533,33.987,21.187,20.333,37.4,20.333"
		/>
	<polygon style="fill:#54C9FD;" points="195.267,259.267 75.8,259.267 41.667,156.867 229.4,156.867 	"/>
	<polygon style="fill:#33A9F8;" points="203.8,156.867 169.667,259.267 195.267,259.267 229.4,156.867 	"/>
	<path d="M347.16,472.6H162.84c-4.267,0-8.533-2.56-10.24-7.68c-1.707-4.267,0-9.387,4.267-11.947l15.36-11.093
		c13.653-9.387,20.48-27.307,16.213-44.373l-2.56-10.24h140.8l-5.973,11.093c-3.413,17.067,2.56,34.133,16.213,43.52l15.36,11.093
		c3.413,2.56,5.12,7.68,4.267,11.947C355.693,470.04,351.427,472.6,347.16,472.6z M342.893,467.48L342.893,467.48L342.893,467.48z
		 M167.107,467.48L167.107,467.48L167.107,467.48z M183.32,455.533h142.507c-15.36-11.947-24.747-31.573-23.04-51.2h-95.573
		C208.067,423.96,199.533,443.587,183.32,455.533z"/>
	<path d="M472.6,404.333H37.4c-21.333,0-38.4-17.067-38.4-38.4V50.2c0-21.333,17.067-38.4,38.4-38.4h435.2
		c21.333,0,38.4,17.067,38.4,38.4v315.733C511,387.267,493.933,404.333,472.6,404.333z M37.4,28.867
		c-11.947,0-21.333,9.387-21.333,21.333v315.733c0,11.947,9.387,21.333,21.333,21.333h435.2c11.947,0,21.333-9.387,21.333-21.333
		V50.2c0-11.947-9.387-21.333-21.333-21.333H37.4z"/>
	<path d="M511,327.533H-1V50.2c0-21.333,17.067-38.4,38.4-38.4h435.2c21.333,0,38.4,17.067,38.4,38.4V327.533z M16.067,310.467
		h477.867V50.2c0-11.947-9.387-21.333-21.333-21.333H37.4c-11.947,0-21.333,9.387-21.333,21.333V310.467z"/>
	<path d="M353.133,498.2H156.867c-11.947,0-21.333-9.387-21.333-21.333s9.387-21.333,21.333-21.333h196.267
		c11.947,0,21.333,9.387,21.333,21.333S365.08,498.2,353.133,498.2z M156.867,472.6c-2.56,0-4.267,1.707-4.267,4.267
		s1.707,4.267,4.267,4.267h196.267c2.56,0,4.267-1.707,4.267-4.267s-1.707-4.267-4.267-4.267H156.867z"/>
	<path d="M195.267,267.8H75.8c-3.413,0-6.827-2.56-7.68-5.973l-34.133-102.4c-1.707-2.56-0.853-5.12,0.853-7.68
		c1.707-1.707,4.267-3.413,6.827-3.413H229.4c2.56,0,5.12,1.707,6.827,3.413c1.707,2.56,1.707,5.12,0.853,7.68l-34.133,102.4
		C202.093,265.24,198.68,267.8,195.267,267.8z M81.773,250.733h107.52l28.16-85.333H53.613L81.773,250.733z"/>
	<path d="M84.333,165.4c-0.853,0-2.56,0-3.413-0.853c-4.267-1.707-5.973-6.827-4.267-11.093l25.6-59.733
		c1.707-4.267,6.827-5.973,11.093-4.267c4.267,1.707,5.973,6.827,4.267,11.093l-25.6,59.733
		C91.16,163.693,87.747,165.4,84.333,165.4z"/>
	<path d="M186.733,165.4c-3.413,0-6.827-1.707-7.68-5.12l-25.6-59.733c-1.707-4.267,0-9.387,4.267-11.093
		c4.267-1.707,9.387,0,11.093,4.267l25.6,59.733c1.707,4.267,0,9.387-4.267,11.093C189.293,165.4,187.587,165.4,186.733,165.4z"/>
	<path d="M348.867,105.667h-85.333c-5.12,0-8.533-3.413-8.533-8.533s3.413-8.533,8.533-8.533h85.333c5.12,0,8.533,3.413,8.533,8.533
		S353.987,105.667,348.867,105.667z"/>
	<path d="M417.133,105.667H383c-5.12,0-8.533-3.413-8.533-8.533S377.88,88.6,383,88.6h34.133c5.12,0,8.533,3.413,8.533,8.533
		S422.253,105.667,417.133,105.667z"/>
	<path d="M468.333,105.667h-17.067c-5.12,0-8.533-3.413-8.533-8.533s3.413-8.533,8.533-8.533h17.067c5.12,0,8.533,3.413,8.533,8.533
		S473.453,105.667,468.333,105.667z"/>
	<path d="M348.867,216.6h-85.333c-5.12,0-8.533-3.413-8.533-8.533c0-5.12,3.413-8.533,8.533-8.533h85.333
		c5.12,0,8.533,3.413,8.533,8.533C357.4,213.187,353.987,216.6,348.867,216.6z"/>
	<path d="M417.133,216.6H383c-5.12,0-8.533-3.413-8.533-8.533c0-5.12,3.413-8.533,8.533-8.533h34.133
		c5.12,0,8.533,3.413,8.533,8.533C425.667,213.187,422.253,216.6,417.133,216.6z"/>
	<path d="M468.333,216.6h-17.067c-5.12,0-8.533-3.413-8.533-8.533c0-5.12,3.413-8.533,8.533-8.533h17.067
		c5.12,0,8.533,3.413,8.533,8.533C476.867,213.187,473.453,216.6,468.333,216.6z"/>
	<path d="M468.333,267.8H408.6c-5.12,0-8.533-3.413-8.533-8.533c0-5.12,3.413-8.533,8.533-8.533h59.733
		c5.12,0,8.533,3.413,8.533,8.533C476.867,264.387,473.453,267.8,468.333,267.8z"/>
	<path d="M374.467,267.8h-51.2c-5.12,0-8.533-3.413-8.533-8.533c0-5.12,3.413-8.533,8.533-8.533h51.2
		c5.12,0,8.533,3.413,8.533,8.533C383,264.387,379.587,267.8,374.467,267.8z"/>
	<path d="M289.133,267.8h-25.6c-5.12,0-8.533-3.413-8.533-8.533c0-5.12,3.413-8.533,8.533-8.533h25.6
		c5.12,0,8.533,3.413,8.533,8.533C297.667,264.387,294.253,267.8,289.133,267.8z"/>
	<path d="M468.333,165.4H408.6c-5.12,0-8.533-3.413-8.533-8.533c0-5.12,3.413-8.533,8.533-8.533h59.733
		c5.12,0,8.533,3.413,8.533,8.533C476.867,161.987,473.453,165.4,468.333,165.4z"/>
	<path d="M374.467,165.4h-51.2c-5.12,0-8.533-3.413-8.533-8.533c0-5.12,3.413-8.533,8.533-8.533h51.2
		c5.12,0,8.533,3.413,8.533,8.533C383,161.987,379.587,165.4,374.467,165.4z"/>
	<path d="M289.133,165.4h-25.6c-5.12,0-8.533-3.413-8.533-8.533c0-5.12,3.413-8.533,8.533-8.533h25.6
		c5.12,0,8.533,3.413,8.533,8.533C297.667,161.987,294.253,165.4,289.133,165.4z"/>
</g>
<g>
</g>
<g>
</g>
<g>
</g>
<g>
</g>
<g>
</g>
<g>
</g>
<g>
</g>
<g>
</g>
<g>
</g>
<g>
</g>
<g>
</g>
<g>
</g>
<g>
</g>
<g>
</g>
<g>
</g>
</svg>
